# xmcd CD database file
#
# Track frame offsets:
#	150
#	18502
#	36828
#	64974
#	85646
#	124178
#	143703
#	162691
#	185222
#	207706
#	228109
#
# Disc length: 3273 seconds
#
# Revision: 0
# Processed by: cddbd v1.5.1PL0 Copyright (c) Steve Scherf et al.
# Submitted via: NeoAudio 9.9.9
#
DISCID=a00cc70b
DTITLE=Jonny Pacheco - Entre Amigos
DYEAR=2005
DGENRE=Salsa
TTITLE0=Coco Seco
TTITLE1=El Exigente
TTITLE2=Celia...Reina Soberana
TTITLE3=La Bicicleta
TTITLE4=Busca Tu Puesto
TTITLE5=La Mujer De Mi Vecino
TTITLE6=La Cirugia
TTITLE7=Que Mareo
TTITLE8=El Bacaliboro
TTITLE9=La Mujer Del Peso
TTITLE10=Yo Falle
EXTD=YEAR: 2005
EXTT0=
EXTT1=
EXTT2=
EXTT3=
EXTT4=
EXTT5=
EXTT6=
EXTT7=
EXTT8=
EXTT9=
EXTT10=
PLAYORDER=
